<mxfile host="app.diagrams.net" modified="2023-12-05T15:36:50.035Z" agent="Mozilla/5.0 (Windows NT 10.0; Win64; x64) AppleWebKit/537.36 (KHTML, like Gecko) Chrome/117.0.0.0 Safari/537.36" etag="WP5nKbbHi8ygWN2vAdCu" version="22.1.5" type="device">
  <diagram name="Page-1" id="4OXRA6D--3UBGRX-pUJT">
    <mxGraphModel dx="1173" dy="626" grid="1" gridSize="10" guides="1" tooltips="1" connect="1" arrows="1" fold="1" page="1" pageScale="1" pageWidth="850" pageHeight="1100" math="0" shadow="0">
      <root>
        <mxCell id="0" />
        <mxCell id="1" parent="0" />
        <mxCell id="fEgH8-3_-7dUsqVPmE_T-2" value="Quản lý" style="shape=umlActor;verticalLabelPosition=bottom;verticalAlign=top;html=1;fillColor=#dae8fc;strokeColor=#6c8ebf;" parent="1" vertex="1">
          <mxGeometry x="59" y="783" width="30" height="60" as="geometry" />
        </mxCell>
        <mxCell id="LqatEgSMIikT_ZOzgRX4-15" value="&lt;font style=&quot;font-size: 16px;&quot;&gt;HỆ THỐNG QUẢN LÝ WEBSITE BÁN KHÓA HỌC LẬP TRÌNH ONLINE&lt;/font&gt;" style="shape=rect;html=1;verticalAlign=top;fontStyle=1;whiteSpace=wrap;align=center;fillColor=#fff2cc;strokeColor=#d6b656;" parent="1" vertex="1">
          <mxGeometry x="179" y="60" width="621" height="960" as="geometry" />
        </mxCell>
        <mxCell id="LqatEgSMIikT_ZOzgRX4-16" value="Đăng ký tài khoản" style="ellipse;whiteSpace=wrap;html=1;fillColor=#ffe6cc;strokeColor=#d79b00;" parent="1" vertex="1">
          <mxGeometry x="229" y="100" width="170" height="50" as="geometry" />
        </mxCell>
        <mxCell id="LqatEgSMIikT_ZOzgRX4-17" value="Thêm vào giỏ hàng" style="ellipse;whiteSpace=wrap;html=1;fillColor=#ffe6cc;strokeColor=#d79b00;" parent="1" vertex="1">
          <mxGeometry x="229" y="280" width="170" height="50" as="geometry" />
        </mxCell>
        <mxCell id="LqatEgSMIikT_ZOzgRX4-18" value="Đánh giá khóa học" style="ellipse;whiteSpace=wrap;html=1;fillColor=#ffe6cc;strokeColor=#d79b00;" parent="1" vertex="1">
          <mxGeometry x="229" y="470" width="170" height="50" as="geometry" />
        </mxCell>
        <mxCell id="LqatEgSMIikT_ZOzgRX4-19" value="Liên hệ" style="ellipse;whiteSpace=wrap;html=1;fillColor=#ffe6cc;strokeColor=#d79b00;" parent="1" vertex="1">
          <mxGeometry x="229" y="530" width="170" height="50" as="geometry" />
        </mxCell>
        <mxCell id="LqatEgSMIikT_ZOzgRX4-20" value="Chỉnh sửa hồ sơ cá nhân" style="ellipse;whiteSpace=wrap;html=1;fillColor=#f8cecc;strokeColor=#b85450;" parent="1" vertex="1">
          <mxGeometry x="229" y="630" width="170" height="50" as="geometry" />
        </mxCell>
        <mxCell id="LqatEgSMIikT_ZOzgRX4-21" value="Quản lý học viên" style="ellipse;whiteSpace=wrap;html=1;fillColor=#f8cecc;strokeColor=#b85450;" parent="1" vertex="1">
          <mxGeometry x="229" y="703" width="170" height="50" as="geometry" />
        </mxCell>
        <mxCell id="LqatEgSMIikT_ZOzgRX4-22" value="Quản lý tài khoản" style="ellipse;whiteSpace=wrap;html=1;fillColor=#f8cecc;strokeColor=#b85450;" parent="1" vertex="1">
          <mxGeometry x="229" y="773" width="170" height="50" as="geometry" />
        </mxCell>
        <mxCell id="LqatEgSMIikT_ZOzgRX4-23" value="Quản lý khóa học" style="ellipse;whiteSpace=wrap;html=1;fillColor=#f8cecc;strokeColor=#b85450;" parent="1" vertex="1">
          <mxGeometry x="229" y="843" width="170" height="50" as="geometry" />
        </mxCell>
        <mxCell id="LqatEgSMIikT_ZOzgRX4-24" value="Quản lý đánh giá" style="ellipse;whiteSpace=wrap;html=1;fillColor=#f8cecc;strokeColor=#b85450;" parent="1" vertex="1">
          <mxGeometry x="229" y="913" width="170" height="50" as="geometry" />
        </mxCell>
        <mxCell id="LqatEgSMIikT_ZOzgRX4-25" value="Đăng nhập" style="ellipse;whiteSpace=wrap;html=1;fillColor=#d5e8d4;strokeColor=#82b366;" parent="1" vertex="1">
          <mxGeometry x="479" y="540" width="170" height="50" as="geometry" />
        </mxCell>
        <mxCell id="LqatEgSMIikT_ZOzgRX4-26" value="Học viên" style="shape=umlActor;verticalLabelPosition=bottom;verticalAlign=top;html=1;fillColor=#dae8fc;strokeColor=#6c8ebf;" parent="1" vertex="1">
          <mxGeometry x="59" y="310" width="30" height="60" as="geometry" />
        </mxCell>
        <mxCell id="LqatEgSMIikT_ZOzgRX4-28" value="" style="edgeStyle=none;html=1;endArrow=none;verticalAlign=bottom;rounded=0;entryX=0;entryY=0.5;entryDx=0;entryDy=0;exitX=1;exitY=0.3333333333333333;exitDx=0;exitDy=0;exitPerimeter=0;" parent="1" source="LqatEgSMIikT_ZOzgRX4-26" target="LqatEgSMIikT_ZOzgRX4-16" edge="1">
          <mxGeometry width="160" relative="1" as="geometry">
            <mxPoint x="139" y="240" as="sourcePoint" />
            <mxPoint x="419" y="420" as="targetPoint" />
          </mxGeometry>
        </mxCell>
        <mxCell id="LqatEgSMIikT_ZOzgRX4-29" value="" style="edgeStyle=none;html=1;endArrow=none;verticalAlign=bottom;rounded=0;entryX=0;entryY=0.5;entryDx=0;entryDy=0;exitX=1;exitY=0.3333333333333333;exitDx=0;exitDy=0;exitPerimeter=0;" parent="1" source="LqatEgSMIikT_ZOzgRX4-26" target="LqatEgSMIikT_ZOzgRX4-17" edge="1">
          <mxGeometry width="160" relative="1" as="geometry">
            <mxPoint x="99" y="190" as="sourcePoint" />
            <mxPoint x="239" y="145" as="targetPoint" />
          </mxGeometry>
        </mxCell>
        <mxCell id="LqatEgSMIikT_ZOzgRX4-30" value="" style="edgeStyle=none;html=1;endArrow=none;verticalAlign=bottom;rounded=0;entryX=0;entryY=0.5;entryDx=0;entryDy=0;exitX=1;exitY=0.3333333333333333;exitDx=0;exitDy=0;exitPerimeter=0;" parent="1" source="LqatEgSMIikT_ZOzgRX4-26" target="LqatEgSMIikT_ZOzgRX4-18" edge="1">
          <mxGeometry width="160" relative="1" as="geometry">
            <mxPoint x="109" y="200" as="sourcePoint" />
            <mxPoint x="249" y="155" as="targetPoint" />
          </mxGeometry>
        </mxCell>
        <mxCell id="LqatEgSMIikT_ZOzgRX4-31" value="" style="edgeStyle=none;html=1;endArrow=none;verticalAlign=bottom;rounded=0;entryX=0;entryY=0.5;entryDx=0;entryDy=0;exitX=1;exitY=0.3333333333333333;exitDx=0;exitDy=0;exitPerimeter=0;" parent="1" source="LqatEgSMIikT_ZOzgRX4-26" target="LqatEgSMIikT_ZOzgRX4-19" edge="1">
          <mxGeometry width="160" relative="1" as="geometry">
            <mxPoint x="119" y="210" as="sourcePoint" />
            <mxPoint x="259" y="165" as="targetPoint" />
          </mxGeometry>
        </mxCell>
        <mxCell id="LqatEgSMIikT_ZOzgRX4-32" value="" style="edgeStyle=none;html=1;endArrow=none;verticalAlign=bottom;rounded=0;entryX=0;entryY=0.5;entryDx=0;entryDy=0;exitX=1;exitY=0.3333333333333333;exitDx=0;exitDy=0;exitPerimeter=0;" parent="1" source="LqatEgSMIikT_ZOzgRX4-26" target="LqatEgSMIikT_ZOzgRX4-20" edge="1">
          <mxGeometry width="160" relative="1" as="geometry">
            <mxPoint x="129" y="220" as="sourcePoint" />
            <mxPoint x="269" y="175" as="targetPoint" />
          </mxGeometry>
        </mxCell>
        <mxCell id="LqatEgSMIikT_ZOzgRX4-33" value="" style="edgeStyle=none;html=1;endArrow=none;verticalAlign=bottom;rounded=0;entryX=0;entryY=0.5;entryDx=0;entryDy=0;exitX=1;exitY=0.3333333333333333;exitDx=0;exitDy=0;exitPerimeter=0;" parent="1" source="fEgH8-3_-7dUsqVPmE_T-2" target="LqatEgSMIikT_ZOzgRX4-20" edge="1">
          <mxGeometry width="160" relative="1" as="geometry">
            <mxPoint x="139" y="500" as="sourcePoint" />
            <mxPoint x="279" y="455" as="targetPoint" />
          </mxGeometry>
        </mxCell>
        <mxCell id="LqatEgSMIikT_ZOzgRX4-34" value="" style="edgeStyle=none;html=1;endArrow=none;verticalAlign=bottom;rounded=0;entryX=0;entryY=0.5;entryDx=0;entryDy=0;exitX=1;exitY=0.3333333333333333;exitDx=0;exitDy=0;exitPerimeter=0;" parent="1" source="fEgH8-3_-7dUsqVPmE_T-2" target="LqatEgSMIikT_ZOzgRX4-21" edge="1">
          <mxGeometry width="160" relative="1" as="geometry">
            <mxPoint x="29" y="973" as="sourcePoint" />
            <mxPoint x="169" y="928" as="targetPoint" />
          </mxGeometry>
        </mxCell>
        <mxCell id="LqatEgSMIikT_ZOzgRX4-35" value="" style="edgeStyle=none;html=1;endArrow=none;verticalAlign=bottom;rounded=0;entryX=0;entryY=0.5;entryDx=0;entryDy=0;exitX=1;exitY=0.3333333333333333;exitDx=0;exitDy=0;exitPerimeter=0;" parent="1" source="fEgH8-3_-7dUsqVPmE_T-2" target="LqatEgSMIikT_ZOzgRX4-22" edge="1">
          <mxGeometry width="160" relative="1" as="geometry">
            <mxPoint x="39" y="983" as="sourcePoint" />
            <mxPoint x="179" y="938" as="targetPoint" />
          </mxGeometry>
        </mxCell>
        <mxCell id="LqatEgSMIikT_ZOzgRX4-36" value="" style="edgeStyle=none;html=1;endArrow=none;verticalAlign=bottom;rounded=0;entryX=0;entryY=0.5;entryDx=0;entryDy=0;exitX=1;exitY=0.3333333333333333;exitDx=0;exitDy=0;exitPerimeter=0;" parent="1" source="fEgH8-3_-7dUsqVPmE_T-2" target="LqatEgSMIikT_ZOzgRX4-23" edge="1">
          <mxGeometry width="160" relative="1" as="geometry">
            <mxPoint x="49" y="993" as="sourcePoint" />
            <mxPoint x="189" y="948" as="targetPoint" />
          </mxGeometry>
        </mxCell>
        <mxCell id="LqatEgSMIikT_ZOzgRX4-37" value="" style="edgeStyle=none;html=1;endArrow=none;verticalAlign=bottom;rounded=0;entryX=0;entryY=0.5;entryDx=0;entryDy=0;exitX=1;exitY=0.3333333333333333;exitDx=0;exitDy=0;exitPerimeter=0;" parent="1" source="fEgH8-3_-7dUsqVPmE_T-2" target="LqatEgSMIikT_ZOzgRX4-24" edge="1">
          <mxGeometry width="160" relative="1" as="geometry">
            <mxPoint x="59" y="1003" as="sourcePoint" />
            <mxPoint x="199" y="958" as="targetPoint" />
          </mxGeometry>
        </mxCell>
        <mxCell id="LqatEgSMIikT_ZOzgRX4-38" value="&amp;lt;&amp;lt;include&amp;gt;&amp;gt;" style="edgeStyle=none;html=1;endArrow=open;verticalAlign=bottom;dashed=1;labelBackgroundColor=none;rounded=0;entryX=0;entryY=0;entryDx=0;entryDy=0;exitX=1;exitY=0.5;exitDx=0;exitDy=0;" parent="1" source="LqatEgSMIikT_ZOzgRX4-18" target="LqatEgSMIikT_ZOzgRX4-25" edge="1">
          <mxGeometry width="160" relative="1" as="geometry">
            <mxPoint x="419" y="610" as="sourcePoint" />
            <mxPoint x="579" y="610" as="targetPoint" />
          </mxGeometry>
        </mxCell>
        <mxCell id="LqatEgSMIikT_ZOzgRX4-39" value="&amp;lt;&amp;lt;include&amp;gt;&amp;gt;" style="edgeStyle=none;html=1;endArrow=open;verticalAlign=bottom;dashed=1;labelBackgroundColor=none;rounded=0;entryX=0;entryY=0.5;entryDx=0;entryDy=0;exitX=1;exitY=0.5;exitDx=0;exitDy=0;" parent="1" source="LqatEgSMIikT_ZOzgRX4-19" target="LqatEgSMIikT_ZOzgRX4-25" edge="1">
          <mxGeometry width="160" relative="1" as="geometry">
            <mxPoint x="409" y="505" as="sourcePoint" />
            <mxPoint x="489" y="465" as="targetPoint" />
          </mxGeometry>
        </mxCell>
        <mxCell id="LqatEgSMIikT_ZOzgRX4-40" value="Xem khóa học" style="ellipse;whiteSpace=wrap;html=1;fillColor=#ffe6cc;strokeColor=#d79b00;" parent="1" vertex="1">
          <mxGeometry x="229" y="160" width="170" height="50" as="geometry" />
        </mxCell>
        <mxCell id="LqatEgSMIikT_ZOzgRX4-41" value="Thanh toán" style="ellipse;whiteSpace=wrap;html=1;fillColor=#ffe6cc;strokeColor=#d79b00;" parent="1" vertex="1">
          <mxGeometry x="229" y="400" width="170" height="50" as="geometry" />
        </mxCell>
        <mxCell id="LqatEgSMIikT_ZOzgRX4-42" value="Tìm kiếm khóa học" style="ellipse;whiteSpace=wrap;html=1;fillColor=#ffe6cc;strokeColor=#d79b00;" parent="1" vertex="1">
          <mxGeometry x="229" y="220" width="170" height="50" as="geometry" />
        </mxCell>
        <mxCell id="LqatEgSMIikT_ZOzgRX4-43" value="Xóa / Cập nhật giỏ hàng" style="ellipse;whiteSpace=wrap;html=1;fillColor=#ffe6cc;strokeColor=#d79b00;" parent="1" vertex="1">
          <mxGeometry x="229" y="340" width="170" height="50" as="geometry" />
        </mxCell>
        <mxCell id="LqatEgSMIikT_ZOzgRX4-44" value="" style="edgeStyle=none;html=1;endArrow=none;verticalAlign=bottom;rounded=0;exitX=1;exitY=0.3333333333333333;exitDx=0;exitDy=0;exitPerimeter=0;entryX=0;entryY=0.5;entryDx=0;entryDy=0;" parent="1" source="LqatEgSMIikT_ZOzgRX4-26" target="LqatEgSMIikT_ZOzgRX4-40" edge="1">
          <mxGeometry width="160" relative="1" as="geometry">
            <mxPoint x="269" y="360" as="sourcePoint" />
            <mxPoint x="429" y="360" as="targetPoint" />
          </mxGeometry>
        </mxCell>
        <mxCell id="LqatEgSMIikT_ZOzgRX4-45" value="" style="edgeStyle=none;html=1;endArrow=none;verticalAlign=bottom;rounded=0;exitX=1;exitY=0.3333333333333333;exitDx=0;exitDy=0;exitPerimeter=0;entryX=0;entryY=0.5;entryDx=0;entryDy=0;" parent="1" source="LqatEgSMIikT_ZOzgRX4-26" target="LqatEgSMIikT_ZOzgRX4-42" edge="1">
          <mxGeometry width="160" relative="1" as="geometry">
            <mxPoint x="269" y="360" as="sourcePoint" />
            <mxPoint x="429" y="360" as="targetPoint" />
          </mxGeometry>
        </mxCell>
        <mxCell id="LqatEgSMIikT_ZOzgRX4-46" value="" style="edgeStyle=none;html=1;endArrow=none;verticalAlign=bottom;rounded=0;exitX=1;exitY=0.3333333333333333;exitDx=0;exitDy=0;exitPerimeter=0;entryX=0;entryY=0.5;entryDx=0;entryDy=0;" parent="1" source="LqatEgSMIikT_ZOzgRX4-26" target="LqatEgSMIikT_ZOzgRX4-43" edge="1">
          <mxGeometry width="160" relative="1" as="geometry">
            <mxPoint x="269" y="360" as="sourcePoint" />
            <mxPoint x="429" y="360" as="targetPoint" />
          </mxGeometry>
        </mxCell>
        <mxCell id="LqatEgSMIikT_ZOzgRX4-47" value="" style="edgeStyle=none;html=1;endArrow=none;verticalAlign=bottom;rounded=0;exitX=1;exitY=0.3333333333333333;exitDx=0;exitDy=0;exitPerimeter=0;entryX=0;entryY=0.5;entryDx=0;entryDy=0;" parent="1" source="LqatEgSMIikT_ZOzgRX4-26" target="LqatEgSMIikT_ZOzgRX4-41" edge="1">
          <mxGeometry width="160" relative="1" as="geometry">
            <mxPoint x="269" y="360" as="sourcePoint" />
            <mxPoint x="429" y="360" as="targetPoint" />
          </mxGeometry>
        </mxCell>
        <mxCell id="LqatEgSMIikT_ZOzgRX4-49" value="&amp;lt;&amp;lt;include&amp;gt;&amp;gt;" style="edgeStyle=none;html=1;endArrow=open;verticalAlign=bottom;dashed=1;labelBackgroundColor=none;rounded=0;exitX=1;exitY=0.5;exitDx=0;exitDy=0;" parent="1" source="LqatEgSMIikT_ZOzgRX4-41" target="LqatEgSMIikT_ZOzgRX4-25" edge="1">
          <mxGeometry width="160" relative="1" as="geometry">
            <mxPoint x="330" y="470" as="sourcePoint" />
            <mxPoint x="490" y="470" as="targetPoint" />
          </mxGeometry>
        </mxCell>
        <mxCell id="LqatEgSMIikT_ZOzgRX4-50" value="&amp;lt;&amp;lt;include&amp;gt;&amp;gt;" style="edgeStyle=none;html=1;endArrow=open;verticalAlign=bottom;dashed=1;labelBackgroundColor=none;rounded=0;entryX=0;entryY=1;entryDx=0;entryDy=0;exitX=1;exitY=0.5;exitDx=0;exitDy=0;" parent="1" source="LqatEgSMIikT_ZOzgRX4-20" target="LqatEgSMIikT_ZOzgRX4-25" edge="1">
          <mxGeometry width="160" relative="1" as="geometry">
            <mxPoint x="330" y="530" as="sourcePoint" />
            <mxPoint x="490" y="530" as="targetPoint" />
          </mxGeometry>
        </mxCell>
        <mxCell id="LqatEgSMIikT_ZOzgRX4-53" value="&amp;lt;&amp;lt;include&amp;gt;&amp;gt;" style="edgeStyle=none;html=1;endArrow=open;verticalAlign=bottom;dashed=1;labelBackgroundColor=none;rounded=0;exitX=1;exitY=0.5;exitDx=0;exitDy=0;" parent="1" source="LqatEgSMIikT_ZOzgRX4-21" target="LqatEgSMIikT_ZOzgRX4-25" edge="1">
          <mxGeometry width="160" relative="1" as="geometry">
            <mxPoint x="300" y="740" as="sourcePoint" />
            <mxPoint x="460" y="740" as="targetPoint" />
          </mxGeometry>
        </mxCell>
        <mxCell id="LqatEgSMIikT_ZOzgRX4-54" value="&amp;lt;&amp;lt;include&amp;gt;&amp;gt;" style="edgeStyle=none;html=1;endArrow=open;verticalAlign=bottom;dashed=1;labelBackgroundColor=none;rounded=0;entryX=0.5;entryY=1;entryDx=0;entryDy=0;exitX=1;exitY=0.5;exitDx=0;exitDy=0;" parent="1" source="LqatEgSMIikT_ZOzgRX4-22" target="LqatEgSMIikT_ZOzgRX4-25" edge="1">
          <mxGeometry width="160" relative="1" as="geometry">
            <mxPoint x="300" y="740" as="sourcePoint" />
            <mxPoint x="460" y="740" as="targetPoint" />
          </mxGeometry>
        </mxCell>
        <mxCell id="Gzs30x1k5QGYR6AnLx_8-2" value="&amp;lt;&amp;lt;include&amp;gt;&amp;gt;" style="edgeStyle=none;html=1;endArrow=open;verticalAlign=bottom;dashed=1;labelBackgroundColor=none;rounded=0;entryX=0.671;entryY=0.96;entryDx=0;entryDy=0;entryPerimeter=0;exitX=1;exitY=0.5;exitDx=0;exitDy=0;" edge="1" parent="1" source="LqatEgSMIikT_ZOzgRX4-23" target="LqatEgSMIikT_ZOzgRX4-25">
          <mxGeometry width="160" relative="1" as="geometry">
            <mxPoint x="480" y="640" as="sourcePoint" />
            <mxPoint x="640" y="640" as="targetPoint" />
          </mxGeometry>
        </mxCell>
        <mxCell id="Gzs30x1k5QGYR6AnLx_8-3" value="&amp;lt;&amp;lt;include&amp;gt;&amp;gt;" style="edgeStyle=none;html=1;endArrow=open;verticalAlign=bottom;dashed=1;labelBackgroundColor=none;rounded=0;exitX=1;exitY=0.5;exitDx=0;exitDy=0;entryX=1;entryY=1;entryDx=0;entryDy=0;" edge="1" parent="1" source="LqatEgSMIikT_ZOzgRX4-24" target="LqatEgSMIikT_ZOzgRX4-25">
          <mxGeometry width="160" relative="1" as="geometry">
            <mxPoint x="480" y="740" as="sourcePoint" />
            <mxPoint x="640" y="740" as="targetPoint" />
          </mxGeometry>
        </mxCell>
        <mxCell id="Gzs30x1k5QGYR6AnLx_8-4" value="Đổi mật khẩu" style="ellipse;whiteSpace=wrap;html=1;fillColor=#e1d5e7;strokeColor=#9673a6;" vertex="1" parent="1">
          <mxGeometry x="620" y="430" width="170" height="50" as="geometry" />
        </mxCell>
        <mxCell id="Gzs30x1k5QGYR6AnLx_8-5" value="Đăng xuất" style="ellipse;whiteSpace=wrap;html=1;fillColor=#e1d5e7;strokeColor=#9673a6;" vertex="1" parent="1">
          <mxGeometry x="620" y="630" width="170" height="50" as="geometry" />
        </mxCell>
        <mxCell id="Gzs30x1k5QGYR6AnLx_8-6" value="&amp;lt;&amp;lt;extend&amp;gt;&amp;gt;" style="edgeStyle=none;html=1;startArrow=open;endArrow=none;startSize=12;verticalAlign=bottom;dashed=1;labelBackgroundColor=none;rounded=0;entryX=0.5;entryY=1;entryDx=0;entryDy=0;exitX=1;exitY=0;exitDx=0;exitDy=0;" edge="1" parent="1" source="LqatEgSMIikT_ZOzgRX4-25" target="Gzs30x1k5QGYR6AnLx_8-4">
          <mxGeometry width="160" relative="1" as="geometry">
            <mxPoint x="620" y="520" as="sourcePoint" />
            <mxPoint x="780" y="520" as="targetPoint" />
          </mxGeometry>
        </mxCell>
        <mxCell id="Gzs30x1k5QGYR6AnLx_8-7" value="&amp;lt;&amp;lt;extend&amp;gt;&amp;gt;" style="edgeStyle=none;html=1;startArrow=open;endArrow=none;startSize=12;verticalAlign=bottom;dashed=1;labelBackgroundColor=none;rounded=0;entryX=0.5;entryY=0;entryDx=0;entryDy=0;exitX=0.949;exitY=0.736;exitDx=0;exitDy=0;exitPerimeter=0;" edge="1" parent="1" source="LqatEgSMIikT_ZOzgRX4-25" target="Gzs30x1k5QGYR6AnLx_8-5">
          <mxGeometry width="160" relative="1" as="geometry">
            <mxPoint x="620" y="520" as="sourcePoint" />
            <mxPoint x="780" y="520" as="targetPoint" />
          </mxGeometry>
        </mxCell>
        <mxCell id="Gzs30x1k5QGYR6AnLx_8-8" value="Thanh toán bằng&lt;br&gt;thẻ ngân hàng" style="ellipse;whiteSpace=wrap;html=1;fillColor=#e1d5e7;strokeColor=#9673a6;" vertex="1" parent="1">
          <mxGeometry x="450" y="340" width="170" height="50" as="geometry" />
        </mxCell>
        <mxCell id="Gzs30x1k5QGYR6AnLx_8-9" value="&amp;lt;&amp;lt;extend&amp;gt;&amp;gt;" style="edgeStyle=none;html=1;startArrow=open;endArrow=none;startSize=12;verticalAlign=bottom;dashed=1;labelBackgroundColor=none;rounded=0;entryX=0;entryY=1;entryDx=0;entryDy=0;exitX=1;exitY=0;exitDx=0;exitDy=0;" edge="1" parent="1" source="LqatEgSMIikT_ZOzgRX4-41" target="Gzs30x1k5QGYR6AnLx_8-8">
          <mxGeometry width="160" relative="1" as="geometry">
            <mxPoint x="320" y="510" as="sourcePoint" />
            <mxPoint x="480" y="510" as="targetPoint" />
          </mxGeometry>
        </mxCell>
      </root>
    </mxGraphModel>
  </diagram>
</mxfile>
